# xmcd
# Track frame offsets:
# 150
# 11095
# 22565
# 32011
# 40781
# 53001
# 65295
# 75564
# 85384
# 95429
# 104949
# 116570
# 128265
# 140034
# 151878
#
# Disc length: 2148 seconds
# Revision: 0
# Processed by: cddbd v1.5.2PL0 Copyright (c) Steve Scherf et al.
# Submitted via: VisiTrax 2.11.2.271 - For more info visit www.synapsa.com
#
DISCID=b308620f
DTITLE=Various Artist - Classic Country 1957-1960 Disc 1
DYEAR=2001
DGENRE=Country
TTITLE0=The Everly Brothers - ('Til) I Kissed You
TTITLE1=Johnny Cash - Big River
TTITLE2=Bob Luman - Let's Think About Livin'
TTITLE3=Don Gibson - Sweet Dreams
TTITLE4=Hank Locklin - It's A Little More Like Heaven
TTITLE5=Bonnie Guitar - Dark Moon
TTITLE6=Jimmy C. Newman - A Fallen Star
TTITLE7=Marty Robbins - Knee Deep In The Blues
TTITLE8=Jim Reeves - Blue Boy
TTITLE9=Webb Pierce - Honky Tonk Song
TTITLE10=Skeeter Davis - My Last Date (With You)
TTITLE11=Ray Price - My Shoes Keep Walking Back To You
TTITLE12=Bobby Helms - Jacqueline
TTITLE13=Jimmie Rodgers - Secretly
TTITLE14=Ricky Nelson - Believe What You Say
EXTD=
EXTT0=
EXTT1=
EXTT2=
EXTT3=
EXTT4=
EXTT5=
EXTT6=
EXTT7=
EXTT8=
EXTT9=
EXTT10=
EXTT11=
EXTT12=
EXTT13=
EXTT14=
PLAYORDER=
